{"accessors" : [{"bufferView" : 0, "byteOffset" : 0, "componentType" : 5123, "count" : 7008, "type" : "SCALAR", "max" : [7007], "min" : [0]}, {"bufferView" : 1, "byteOffset" : 0, "componentType" : 5126, "count" : 7008, "type" : "VEC3", "max" : [4.165034294128418, 4.165033340454102, 0.3384612798690796], "min" : [-4.165034294128418, -4.16503381729126, -0.3384612798690796], "name" : "POSITION"}, {"bufferView" : 1, "byteOffset" : 12, "componentType" : 5126, "count" : 7008, "type" : "VEC3", "max" : [1.0000044107437134, 1.0000044107437134, 1.0000044107437134], "min" : [-1.0000044107437134, -1.0000044107437134, -1.0000044107437134], "name" : "NORMAL"}, {"bufferView" : 1, "byteOffset" : 24, "componentType" : 5126, "count" : 7008, "type" : "VEC2", "max" : [0.994949460029602, 0.9850090146064758], "min" : [0.006985534448176622, 0.005665898323059082], "name" : "TEXCOORD_0"}], "asset" : {"generator" : "Aspose.3D 24.6.0", "version" : "2.0"}, "buffers" : [{"uri" : "buffer.bin", "byteLength" : 238280}], "bufferViews" : [{"buffer" : 0, "byteOffset" : 0, "byteLength" : 14016, "target" : 34963}, {"buffer" : 0, "byteOffset" : 14020, "byteLength" : 224256, "byteStride" : 32, "target" : 34962}], "images" : [{"uri" : "F:\\M n B\\_MESH\\P mesh\\Plate\\PlateNormal.png"}, {"uri" : "F:\\M n B\\_MESH\\P mesh\\Plate\\PlateAlbedo.png"}], "materials" : [{"name" : "Plate", "pbrMetallicRoughness" : {"baseColorFactor" : [1, 1, 1, 1], "baseColorTexture" : {"index" : 1, "texCoord" : 0}, "metallicFactor" : 1, "roughnessFactor" : 1}, "normalTexture" : {"index" : 0, "texCoord" : 0, "scale" : 1}, "emissiveFactor" : [0, 0, 0], "alphaMode" : "OPAQUE", "doubleSided" : false}], "meshes" : [{"primitives" : [{"attributes" : {"POSITION" : 1, "NORMAL" : 2, "TEXCOORD_0" : 3}, "indices" : 0, "material" : 0, "mode" : 4}], "name" : ""}], "nodes" : [{"matrix" : [1, 0, 0, 0, 0, 6.123233995736766E-17, -1, 0, 0, 1, 6.123233995736766E-17, 0, 9.566667813487584E-07, 0, 0, 1], "mesh" : 0, "name" : "Plate"}], "samplers" : [{"magFilter" : 9729, "minFilter" : 9729, "wrapS" : 10497, "wrapT" : 10497}, {"magFilter" : 9729, "minFilter" : 9729, "wrapS" : 10497, "wrapT" : 10497}], "scene" : 0, "scenes" : [{"nodes" : [0]}], "textures" : [{"sampler" : 0, "source" : 0, "name" : "Map #104"}, {"sampler" : 1, "source" : 1, "name" : "Map #102"}]}