<?xml version="1.0" encoding="us-ascii" standalone="no"?><svg xmlns="http://www.w3.org/2000/svg" xmlns:xlink="http://www.w3.org/1999/xlink" contentStyleType="text/css" height="534.375px" preserveAspectRatio="none" style="width:504px;height:534px;" version="1.1" viewBox="0 0 504 534" width="504.1667px" zoomAndPan="magnify"><defs><linearGradient id="glihzbeqvsbdk0" x1="50%" x2="50%" y1="0%" y2="100%"><stop offset="0%" stop-color="#F18E3E"/><stop offset="100%" stop-color="#EC7211"/></linearGradient></defs><g><!--cluster Cake_configurator--><g id="cluster_Cake_configurator"><path d="M10.4167,6.25 L147.9167,6.25 A6.25,6.25 0 0 1 152.0833,10.4167 L159.375,37.4864 L492.7083,37.4864 A4.1667,4.1667 0 0 1 496.875,41.6531 L496.875,522.9167 A4.1667,4.1667 0 0 1 492.7083,527.0833 L10.4167,527.0833 A4.1667,4.1667 0 0 1 6.25,522.9167 L6.25,10.4167 A4.1667,4.1667 0 0 1 10.4167,6.25 " fill="none" style="stroke:#4E5D6C;stroke-width:2.0833333333333335;"/><line style="stroke:#4E5D6C;stroke-width:2.0833333333333335;" x1="6.25" x2="159.375" y1="37.4864" y2="37.4864"/><text fill="#4E5D6C" font-family="Verdana" font-size="12.5" font-weight="bold" lengthAdjust="spacing" textLength="129.1667" x="15.625" y="25.1596">Cake_configurator</text></g><!--cluster components--><g id="cluster_components"><path d="M35.4167,243.75 L131.25,243.75 A6.25,6.25 0 0 1 135.4167,247.9167 L142.7083,274.9864 L467.7083,274.9864 A4.1667,4.1667 0 0 1 471.875,279.1531 L471.875,356.25 A4.1667,4.1667 0 0 1 467.7083,360.4167 L35.4167,360.4167 A4.1667,4.1667 0 0 1 31.25,356.25 L31.25,247.9167 A4.1667,4.1667 0 0 1 35.4167,243.75 " fill="none" style="stroke:#4E5D6C;stroke-width:2.0833333333333335;"/><line style="stroke:#4E5D6C;stroke-width:2.0833333333333335;" x1="31.25" x2="142.7083" y1="274.9864" y2="274.9864"/><text fill="#4E5D6C" font-family="Verdana" font-size="12.5" font-weight="bold" lengthAdjust="spacing" textLength="87.5" x="40.625" y="262.6596">components</text></g><!--cluster contexts--><g id="cluster_contexts"><path d="M188.5417,385.4167 L258.3333,385.4167 A6.25,6.25 0 0 1 262.5,389.5833 L269.7917,416.6531 L355.2083,416.6531 A4.1667,4.1667 0 0 1 359.375,420.8197 L359.375,497.9167 A4.1667,4.1667 0 0 1 355.2083,502.0833 L188.5417,502.0833 A4.1667,4.1667 0 0 1 184.375,497.9167 L184.375,389.5833 A4.1667,4.1667 0 0 1 188.5417,385.4167 " fill="none" style="stroke:#4E5D6C;stroke-width:2.0833333333333335;"/><line style="stroke:#4E5D6C;stroke-width:2.0833333333333335;" x1="184.375" x2="269.7917" y1="416.6531" y2="416.6531"/><text fill="#4E5D6C" font-family="Verdana" font-size="12.5" font-weight="bold" lengthAdjust="spacing" textLength="61.4583" x="193.75" y="404.3262">contexts</text></g><!--entity App--><g id="elem_App"><rect fill="url(#glihzbeqvsbdk0)" height="56.2364" rx="4.1667" ry="4.1667" style="stroke:#EC7211;stroke-width:1.0416666666666667;" width="77.0833" x="233.3333" y="168.75"/><rect fill="url(#glihzbeqvsbdk0)" height="10.4167" style="stroke:#EC7211;stroke-width:1.0416666666666667;" width="15.625" x="289.5833" y="173.9583"/><rect fill="url(#glihzbeqvsbdk0)" height="2.0833" style="stroke:#EC7211;stroke-width:1.0416666666666667;" width="4.1667" x="287.5" y="176.0417"/><rect fill="url(#glihzbeqvsbdk0)" height="2.0833" style="stroke:#EC7211;stroke-width:1.0416666666666667;" width="4.1667" x="287.5" y="180.2083"/><text fill="#FFFFFF" font-family="Verdana" font-size="12.5" lengthAdjust="spacing" textLength="25" x="254.1667" y="206.4096">App</text></g><!--entity main--><g id="elem_main"><rect fill="url(#glihzbeqvsbdk0)" height="56.2364" rx="4.1667" ry="4.1667" style="stroke:#EC7211;stroke-width:1.0416666666666667;" width="83.3333" x="230.2083" y="50"/><rect fill="url(#glihzbeqvsbdk0)" height="10.4167" style="stroke:#EC7211;stroke-width:1.0416666666666667;" width="15.625" x="292.7083" y="55.2083"/><rect fill="url(#glihzbeqvsbdk0)" height="2.0833" style="stroke:#EC7211;stroke-width:1.0416666666666667;" width="4.1667" x="290.625" y="57.2917"/><rect fill="url(#glihzbeqvsbdk0)" height="2.0833" style="stroke:#EC7211;stroke-width:1.0416666666666667;" width="4.1667" x="290.625" y="61.4583"/><text fill="#FFFFFF" font-family="Verdana" font-size="12.5" lengthAdjust="spacing" textLength="31.25" x="251.0417" y="87.6596">main</text></g><!--entity Cake--><g id="elem_Cake"><rect fill="url(#glihzbeqvsbdk0)" height="56.2364" rx="4.1667" ry="4.1667" style="stroke:#EC7211;stroke-width:1.0416666666666667;" width="82.2917" x="373.4375" y="287.5"/><rect fill="url(#glihzbeqvsbdk0)" height="10.4167" style="stroke:#EC7211;stroke-width:1.0416666666666667;" width="15.625" x="434.8958" y="292.7083"/><rect fill="url(#glihzbeqvsbdk0)" height="2.0833" style="stroke:#EC7211;stroke-width:1.0416666666666667;" width="4.1667" x="432.8125" y="294.7917"/><rect fill="url(#glihzbeqvsbdk0)" height="2.0833" style="stroke:#EC7211;stroke-width:1.0416666666666667;" width="4.1667" x="432.8125" y="298.9583"/><text fill="#FFFFFF" font-family="Verdana" font-size="12.5" lengthAdjust="spacing" textLength="30.2083" x="394.2708" y="325.1596">Cake</text></g><!--entity Configurator--><g id="elem_Configurator"><rect fill="url(#glihzbeqvsbdk0)" height="56.2364" rx="4.1667" ry="4.1667" style="stroke:#EC7211;stroke-width:1.0416666666666667;" width="130.2083" x="206.7708" y="287.5"/><rect fill="url(#glihzbeqvsbdk0)" height="10.4167" style="stroke:#EC7211;stroke-width:1.0416666666666667;" width="15.625" x="316.1458" y="292.7083"/><rect fill="url(#glihzbeqvsbdk0)" height="2.0833" style="stroke:#EC7211;stroke-width:1.0416666666666667;" width="4.1667" x="314.0625" y="294.7917"/><rect fill="url(#glihzbeqvsbdk0)" height="2.0833" style="stroke:#EC7211;stroke-width:1.0416666666666667;" width="4.1667" x="314.0625" y="298.9583"/><text fill="#FFFFFF" font-family="Verdana" font-size="12.5" lengthAdjust="spacing" textLength="78.125" x="227.6042" y="325.1596">Configurator</text></g><!--entity Experience--><g id="elem_Experience"><rect fill="url(#glihzbeqvsbdk0)" height="56.2364" rx="4.1667" ry="4.1667" style="stroke:#EC7211;stroke-width:1.0416666666666667;" width="121.875" x="48.4375" y="287.5"/><rect fill="url(#glihzbeqvsbdk0)" height="10.4167" style="stroke:#EC7211;stroke-width:1.0416666666666667;" width="15.625" x="149.4792" y="292.7083"/><rect fill="url(#glihzbeqvsbdk0)" height="2.0833" style="stroke:#EC7211;stroke-width:1.0416666666666667;" width="4.1667" x="147.3958" y="294.7917"/><rect fill="url(#glihzbeqvsbdk0)" height="2.0833" style="stroke:#EC7211;stroke-width:1.0416666666666667;" width="4.1667" x="147.3958" y="298.9583"/><text fill="#FFFFFF" font-family="Verdana" font-size="12.5" lengthAdjust="spacing" textLength="69.7917" x="69.2708" y="325.1596">Experience</text></g><!--entity Customization--><g id="elem_Customization"><rect fill="url(#glihzbeqvsbdk0)" height="56.2364" rx="4.1667" ry="4.1667" style="stroke:#EC7211;stroke-width:1.0416666666666667;" width="140.625" x="201.5625" y="429.1667"/><rect fill="url(#glihzbeqvsbdk0)" height="10.4167" style="stroke:#EC7211;stroke-width:1.0416666666666667;" width="15.625" x="321.3542" y="434.375"/><rect fill="url(#glihzbeqvsbdk0)" height="2.0833" style="stroke:#EC7211;stroke-width:1.0416666666666667;" width="4.1667" x="319.2708" y="436.4583"/><rect fill="url(#glihzbeqvsbdk0)" height="2.0833" style="stroke:#EC7211;stroke-width:1.0416666666666667;" width="4.1667" x="319.2708" y="440.625"/><text fill="#FFFFFF" font-family="Verdana" font-size="12.5" lengthAdjust="spacing" textLength="88.5417" x="222.3958" y="466.8262">Customization</text></g><!--link App to Cake--><g id="link_App_Cake"><path d="M310.6563,210.625 C325.5313,216.6667 342.0833,224.9063 355.2083,235.4167 C371.5104,248.4688 385.7188,266.9792 396.1458,282.8229 " fill="none" id="App-to-Cake" style="stroke:#EC7211;stroke-width:3.125;"/><polygon fill="#EC7211" points="398.9896,287.2083,397.4005,277.0729,396.1626,282.834,390.4016,281.5961,398.9896,287.2083" style="stroke:#EC7211;stroke-width:3.125;"/></g><!--link App to Configurator--><g id="link_App_Configurator"><path d="M271.875,225.2708 C271.875,242.2396 271.875,264.1354 271.875,282 " fill="none" id="App-to-Configurator" style="stroke:#EC7211;stroke-width:3.125;"/><polygon fill="#EC7211" points="271.875,287.4063,276.0417,278.0313,271.875,282.1979,267.7083,278.0313,271.875,287.4063" style="stroke:#EC7211;stroke-width:3.125;"/></g><!--link App to Experience--><g id="link_App_Experience"><path d="M232.9896,211.9688 C218.4167,218.0938 202.125,226.0417 188.5417,235.4167 C168.9271,248.9583 149.9375,267.6875 135.4792,283.5313 " fill="none" id="App-to-Experience" style="stroke:#EC7211;stroke-width:3.125;"/><polygon fill="#EC7211" points="131.9063,287.4896,141.2837,283.3284,135.3986,283.6257,135.1014,277.7406,131.9063,287.4896" style="stroke:#EC7211;stroke-width:3.125;"/></g><!--link main to App--><g id="link_main_App"><path d="M271.875,106.5208 C271.875,123.4896 271.875,145.3854 271.875,163.25 " fill="none" id="main-to-App" style="stroke:#EC7211;stroke-width:3.125;"/><polygon fill="#EC7211" points="271.875,168.6563,276.0417,159.2813,271.875,163.4479,267.7083,159.2813,271.875,168.6563" style="stroke:#EC7211;stroke-width:3.125;"/></g><!--link Cake to Customization--><g id="link_Cake_Customization"><path d="M386.7292,343.9063 C362.8646,367.2604 328.4896,400.875 303.5729,425.25 " fill="none" id="Cake-to-Customization" style="stroke:#EC7211;stroke-width:3.125;"/><polygon fill="#EC7211" points="299.6563,429.0729,309.2755,425.5062,303.3834,425.4349,303.4547,419.5428,299.6563,429.0729" style="stroke:#EC7211;stroke-width:3.125;"/></g><!--link Configurator to Customization--><g id="link_Configurator_Customization"><path d="M271.875,343.9063 C271.875,366.7813 271.875,399.5 271.875,423.7292 " fill="none" id="Configurator-to-Customization" style="stroke:#EC7211;stroke-width:3.125;"/><polygon fill="#EC7211" points="271.875,429.0729,276.0417,419.6979,271.875,423.8646,267.7083,419.6979,271.875,429.0729" style="stroke:#EC7211;stroke-width:3.125;"/></g><!--link Experience to Customization--><g id="link_Experience_Customization"><path d="M141.0938,343.9063 C168.3854,367.3542 207.7292,401.1563 236.125,425.5417 " fill="none" id="Experience-to-Customization" style="stroke:#EC7211;stroke-width:3.125;"/><polygon fill="#EC7211" points="240.2396,429.0729,235.8705,419.7905,236.2988,425.6675,230.4218,426.0958,240.2396,429.0729" style="stroke:#EC7211;stroke-width:3.125;"/></g><!--SRC=[ROz12iCW44Ntdi9cxnKAfVGKHSeWqrI2CwA6XfRSlOdQOafM3j_d-yuXFT2XX6TK781w51xC03tAxWm3tWpJtVPZWCIXasyXvVNalLvF1vQqMARV2yFECo6bMD05MYMwZesgHfV9Ox189ZFpdumIJgrgZ8cTVK6oJ9MVHVwELEhuxMg3JMDpqVQMFKgULokUQjXsRetxIEFU0pu0]--></g></svg>